# xmcd CD database file
#
# Track frame offsets:
#	183
#	18183
#	39508
#	50633
#	63583
#	80558
#	93583
#	115383
#	129983
#	148233
#	161833
#	176308
#
# Disc length: 2583 seconds
#
# Revision: 0
# Processed by: cddbd v1.5.2PL0 Copyright (c) Steve Scherf et al.
# Submitted via: CDex 1.51
#
DISCID=a50a150c
DTITLE=vari - dixieland vol. 1
DYEAR=1900
DGENRE=Jazz
TTITLE0=Beake street blues - George Lewis and his band
TTITLE1=Loveless love - Kid Ory's Creole jazz band
TTITLE2=Someday you'll be sorry - Louis Armstrong and his all stars
TTITLE3=Eccentric rag - Max Kaminsky and his all star dixieland band
TTITLE4=Canal street blues - Henry Red Allen orchestra
TTITLE5=Savoy blues - Terry Light Foot
TTITLE6=St. Louis blues - Eddie Condon and his boys
TTITLE7=Ballin' the jack - Ken Colyer
TTITLE8=Perdido street blues - Mr. Acker Bilk and his Paramount jazz band
TTITLE9=Hindustan - Alex Welsh and his jazz band
TTITLE10=Saturday night function - Monty Sunshine's jazz band
TTITLE11=Stevedore stomp - Chris Barbers's jazz band
EXTD=
EXTT0=
EXTT1=
EXTT2=
EXTT3=
EXTT4=
EXTT5=
EXTT6=
EXTT7=
EXTT8=
EXTT9=
EXTT10=
EXTT11=
PLAYORDER=
